<svg xmlns="http://www.w3.org/2000/svg" xmlns:xlink="http://www.w3.org/1999/xlink" width="18" height="18" viewBox="0 0 18 18">
    <defs>
        <path id="a" d="M9 18A9 9 0 1 0 9 0a9 9 0 0 0 0 18z"/>
    </defs>
    <g fill="none" fill-rule="evenodd">
        <path fill="#009941" d="M9 18A9 9 0 1 0 9 0a9 9 0 0 0 0 18z"/>
        <g>
            <mask id="b" fill="#fff">
                <use xlink:href="#a"/>
            </mask>
            <use fill="#009941" xlink:href="#a"/>
            <g fill="#FFF" fill-rule="nonzero" stroke="#FFF" stroke-width=".2" mask="url(#b)">
                <path d="M9.5 4c-1.103 0-2 .897-2 2s.897 2 2 2 2-.897 2-2-.897-2-2-2zm0 3.2c-.662 0-1.2-.538-1.2-1.2 0-.662.538-1.2 1.2-1.2.662 0 1.2.538 1.2 1.2 0 .662-.538 1.2-1.2 1.2zM11.1 11H7.9c-.22 0-.4.224-.4.5s.18.5.4.5h3.2c.22 0 .4-.224.4-.5s-.18-.5-.4-.5z"/>
                <path d="M16.02 11.019a.403.403 0 0 0-.58 0 .429.429 0 0 0 0 .595c.154.159.24.37.24.595a.832.832 0 0 1-.82.842h-.02c-.207-2.356-2.143-4.21-4.492-4.21H8.297c-.261 0-.56.031-.85.086A2.808 2.808 0 0 0 5.372 8a.416.416 0 0 0-.41.42v1.896a4.65 4.65 0 0 0-1.046 1.893H3.73c-.678 0-1.23.567-1.23 1.263v.87c0 .696.552 1.26 1.23 1.26l.493.001a4.777 4.777 0 0 0 1.146 1.495c.002.558.002 1.47.002 1.481 0 .233.184.421.41.421h1.64c.227 0 .411-.188.411-.42v-.444c.155.015.314.022.465.022h2.05v.421c0 .233.184.421.41.421h1.641c.227 0 .41-.188.41-.42l.002-1.172a4.592 4.592 0 0 0 1.43-1.564c.336-.6.54-1.267.6-1.951h.02c.904 0 1.64-.755 1.64-1.684 0-.45-.17-.872-.48-1.19zm-3.825 5.79a.423.423 0 0 0-.205.363l-.002.986H6.191c0-.39 0-.957-.002-1.267a.425.425 0 0 0-.164-.334A3.895 3.895 0 0 1 4.86 15.02a.41.41 0 0 0-.359-.251 41.724 41.724 0 0 0-.77-.005.416.416 0 0 1-.41-.421v-.87c0-.232.183-.421.41-.421h.49c.221 0 .374-.141.417-.321.016-.069.05-.21.057-.26a3.8 3.8 0 0 1 .964-1.684.426.426 0 0 0 .122-.3v-1.6c.465.099.885.365 1.193.765a.404.404 0 0 0 .416.148c.301-.073.632-.115.907-.115h2.05c2.036 0 3.692 1.7 3.692 3.788 0 1.361-.724 2.67-1.844 3.337z"/>
            </g>
        </g>
    </g>
</svg>
