<svg xmlns="http://www.w3.org/2000/svg" width="18" height="18" viewBox="0 0 18 18">
    <g fill="none" fill-rule="evenodd">
        <path fill="#009941" fill-rule="nonzero" d="M9 0C4.037 0 0 4.037 0 9a8.968 8.968 0 0 0 2.77 6.48c.005.005.007.013.012.017.052.05.109.092.162.141.144.132.288.262.441.384.082.066.167.125.25.187.144.107.288.215.439.314.102.067.207.126.312.19.138.083.277.168.42.244.122.064.246.12.37.178.134.063.268.129.406.186.137.057.278.104.417.153.132.047.262.097.396.138.152.046.307.08.462.119.128.031.253.067.383.093.177.035.357.058.537.082.111.016.22.037.332.048a8.91 8.91 0 0 0 1.782.001c.112-.01.221-.033.332-.048.18-.025.36-.047.537-.082.13-.026.255-.062.383-.094.155-.038.31-.072.462-.119.134-.04.264-.09.396-.137.14-.05.28-.097.417-.153.138-.057.271-.123.406-.187.124-.058.248-.113.37-.178.143-.076.28-.16.42-.244.105-.063.21-.123.312-.19.15-.099.295-.206.439-.313.083-.063.168-.122.25-.187a9.63 9.63 0 0 0 .441-.384c.053-.048.11-.09.162-.141.005-.005.007-.012.012-.017A8.97 8.97 0 0 0 18 9c0-4.963-4.037-9-9-9z"/>
        <g stroke="#FFF" stroke-width="1.5" transform="translate(3.5 3.5)">
            <circle cx="5" cy="5" r="4.25"/>
            <path stroke-linecap="round" d="M8.015 8.005l2.842 2.815"/>
        </g>
    </g>
</svg>
